<svg width="44" height="43" viewBox="0 0 44 43" fill="none" xmlns="http://www.w3.org/2000/svg">
<path fill-rule="evenodd" clip-rule="evenodd" d="M12.857 10.5241C13.3916 6.69188 17.3613 3.50803 21.8869 3.50803C26.4124 3.50803 30.3822 6.69188 30.9167 10.5241H36.1541C38.1624 10.5241 39.7905 12.0947 39.7905 14.0321C39.7905 14.1981 39.7783 14.3639 39.7539 14.5282L36.6371 35.5763C36.3811 37.3045 34.8469 38.5882 33.0372 38.5882H10.7365C8.92686 38.5882 7.3926 37.3045 7.13668 35.5763L4.0198 14.5282C3.73578 12.6102 5.11723 10.8333 7.10536 10.5593C7.27569 10.5358 7.44755 10.5241 7.61961 10.5241H12.857ZM27.2103 10.5241C26.6575 8.66145 24.4287 7.01605 21.8868 7.01605C19.345 7.01605 17.1161 8.66145 16.5634 10.5241H27.2103ZM7.61962 14.0321H12.796V17.5401H16.4323V14.0321H27.3414V17.5401H30.9778V14.0321H36.1541L33.0372 35.0802H10.7365L7.61962 14.0321Z" fill="#118259"/>
</svg>
