<svg width="32" height="32" viewBox="0 0 32 32" fill="none" xmlns="http://www.w3.org/2000/svg">
<path d="M15.9999 17.7333C15.8266 17.7333 15.6533 17.6933 15.4933 17.6L3.71995 10.7867C3.25328 10.5067 3.07995 9.89333 3.35995 9.41333C3.63995 8.93333 4.25328 8.77333 4.73328 9.05333L15.9999 15.5733L27.1999 9.09333C27.6799 8.81333 28.2933 8.98667 28.5733 9.45333C28.8533 9.93333 28.6799 10.5467 28.2133 10.8267L16.5199 17.6C16.3466 17.68 16.1733 17.7333 15.9999 17.7333Z" fill="#118259"/>
<path d="M16 29.8133C15.4533 29.8133 15 29.36 15 28.8133V16.72C15 16.1733 15.4533 15.72 16 15.72C16.5467 15.72 17 16.1733 17 16.72V28.8133C17 29.36 16.5467 29.8133 16 29.8133Z" fill="#118259"/>
<path d="M16 30.3333C14.8266 30.3333 13.6666 30.08 12.7466 29.5733L5.62665 25.6133C3.69331 24.5467 2.18665 21.9733 2.18665 19.76V12.2267C2.18665 10.0133 3.69331 7.45334 5.62665 6.37333L12.7466 2.42667C14.5733 1.41333 17.4266 1.41333 19.2533 2.42667L26.3733 6.38667C28.3066 7.45333 29.8133 10.0267 29.8133 12.24V19.7733C29.8133 21.9867 28.3066 24.5467 26.3733 25.6267L19.2533 29.5733C18.3333 30.08 17.1733 30.3333 16 30.3333ZM16 3.66667C15.16 3.66667 14.3333 3.84 13.72 4.17333L6.59998 8.13333C5.31998 8.84 4.18665 10.76 4.18665 12.2267V19.76C4.18665 21.2267 5.31998 23.1467 6.59998 23.8667L13.72 27.8267C14.9333 28.5067 17.0666 28.5067 18.28 27.8267L25.4 23.8667C26.68 23.1467 27.8133 21.24 27.8133 19.76V12.2267C27.8133 10.76 26.68 8.84 25.4 8.12L18.28 4.16C17.6666 3.84 16.84 3.66667 16 3.66667Z" fill="#118259"/>
</svg>
