<svg width="32" height="32" viewBox="0 0 32 32" fill="none" xmlns="http://www.w3.org/2000/svg">
<path d="M20.32 29.6933H20.1466C14.2266 29.6933 11.3733 27.36 10.88 22.1333C10.8266 21.5867 11.2266 21.0933 11.7866 21.04C12.32 20.9867 12.8266 21.4 12.88 21.9467C13.2666 26.1333 15.24 27.6933 20.16 27.6933H20.3333C25.76 27.6933 27.68 25.7733 27.68 20.3467V11.6533C27.68 6.22667 25.76 4.30667 20.3333 4.30667H20.16C15.2133 4.30667 13.24 5.89333 12.88 10.16C12.8133 10.7067 12.3466 11.12 11.7866 11.0667C11.2266 11.0267 10.8266 10.5333 10.8666 9.98667C11.32 4.68 14.1866 2.30667 20.1466 2.30667H20.32C26.8666 2.30667 29.6666 5.10667 29.6666 11.6533V20.3467C29.6666 26.8933 26.8666 29.6933 20.32 29.6933Z" fill="#118259"/>
<path d="M20 17H4.82666C4.27999 17 3.82666 16.5467 3.82666 16C3.82666 15.4533 4.27999 15 4.82666 15H20C20.5467 15 21 15.4533 21 16C21 16.5467 20.5467 17 20 17Z" fill="#118259"/>
<path d="M7.8 21.4667C7.54667 21.4667 7.29334 21.3733 7.09334 21.1733L2.62667 16.7067C2.24 16.32 2.24 15.68 2.62667 15.2933L7.09334 10.8267C7.48 10.44 8.12 10.44 8.50667 10.8267C8.89334 11.2133 8.89334 11.8533 8.50667 12.24L4.74667 16L8.50667 19.76C8.89334 20.1467 8.89334 20.7867 8.50667 21.1733C8.32 21.3733 8.05334 21.4667 7.8 21.4667Z" fill="#118259"/>
</svg>
