<svg width="32" height="32" viewBox="0 0 32 32" fill="none" xmlns="http://www.w3.org/2000/svg">
<path d="M16 21C13.24 21 11 18.76 11 16C11 13.24 13.24 11 16 11C18.76 11 21 13.24 21 16C21 18.76 18.76 21 16 21ZM16 13C14.3467 13 13 14.3467 13 16C13 17.6533 14.3467 19 16 19C17.6533 19 19 17.6533 19 16C19 14.3467 17.6533 13 16 13Z" fill="#118259"/>
<path d="M20.28 29.5867C20 29.5867 19.72 29.5467 19.44 29.48C18.6133 29.2533 17.92 28.7333 17.48 28L17.32 27.7333C16.5333 26.3733 15.4533 26.3733 14.6666 27.7333L14.52 27.9867C14.08 28.7333 13.3866 29.2667 12.56 29.48C11.72 29.7067 10.8533 29.5867 10.12 29.1467L7.82663 27.8267C7.01329 27.36 6.42663 26.6 6.17329 25.68C5.93329 24.76 6.05329 23.8133 6.51996 23C6.90663 22.32 7.01329 21.7067 6.78663 21.32C6.55996 20.9333 5.98663 20.7067 5.19996 20.7067C3.25329 20.7067 1.66663 19.12 1.66663 17.1733V14.8267C1.66663 12.88 3.25329 11.2933 5.19996 11.2933C5.98663 11.2933 6.55996 11.0667 6.78663 10.68C7.01329 10.2933 6.91996 9.68 6.51996 9C6.05329 8.18667 5.93329 7.22667 6.17329 6.32C6.41329 5.4 6.99996 4.64 7.82663 4.17333L10.1333 2.85333C11.64 1.96 13.6266 2.48 14.5333 4.01333L14.6933 4.28C15.48 5.64 16.56 5.64 17.3466 4.28L17.4933 4.02667C18.4 2.48 20.3866 1.96 21.9066 2.86667L24.2 4.18667C25.0133 4.65333 25.6 5.41333 25.8533 6.33333C26.0933 7.25333 25.9733 8.2 25.5066 9.01333C25.12 9.69333 25.0133 10.3067 25.24 10.6933C25.4666 11.08 26.04 11.3067 26.8266 11.3067C28.7733 11.3067 30.36 12.8933 30.36 14.84V17.1867C30.36 19.1333 28.7733 20.72 26.8266 20.72C26.04 20.72 25.4666 20.9467 25.24 21.3333C25.0133 21.72 25.1066 22.3333 25.5066 23.0133C25.9733 23.8267 26.1066 24.7867 25.8533 25.6933C25.6133 26.6133 25.0266 27.3733 24.2 27.84L21.8933 29.16C21.3866 29.44 20.84 29.5867 20.28 29.5867ZM16 24.6533C17.1866 24.6533 18.2933 25.4 19.0533 26.72L19.2 26.9733C19.36 27.2533 19.6266 27.4533 19.9466 27.5333C20.2666 27.6133 20.5866 27.5733 20.8533 27.4133L23.16 26.08C23.5066 25.88 23.7733 25.5467 23.88 25.1467C23.9866 24.7467 23.9333 24.3333 23.7333 23.9867C22.9733 22.68 22.88 21.3333 23.4666 20.3067C24.0533 19.28 25.2666 18.6933 26.7866 18.6933C27.64 18.6933 28.32 18.0133 28.32 17.16V14.8133C28.32 13.9733 27.64 13.28 26.7866 13.28C25.2666 13.28 24.0533 12.6933 23.4666 11.6667C22.88 10.64 22.9733 9.29333 23.7333 7.98667C23.9333 7.64 23.9866 7.22667 23.88 6.82667C23.7733 6.42667 23.52 6.10667 23.1733 5.89333L20.8666 4.57333C20.2933 4.22667 19.5333 4.42667 19.1866 5.01333L19.04 5.26667C18.28 6.58667 17.1733 7.33333 15.9866 7.33333C14.8 7.33333 13.6933 6.58667 12.9333 5.26667L12.7866 5C12.4533 4.44 11.7066 4.24 11.1333 4.57333L8.82663 5.90667C8.47996 6.10667 8.21329 6.44 8.10663 6.84C7.99996 7.24 8.05329 7.65333 8.25329 8C9.01329 9.30667 9.10663 10.6533 8.51996 11.68C7.93329 12.7067 6.71996 13.2933 5.19996 13.2933C4.34663 13.2933 3.66663 13.9733 3.66663 14.8267V17.1733C3.66663 18.0133 4.34663 18.7067 5.19996 18.7067C6.71996 18.7067 7.93329 19.2933 8.51996 20.32C9.10663 21.3467 9.01329 22.6933 8.25329 24C8.05329 24.3467 7.99996 24.76 8.10663 25.16C8.21329 25.56 8.46663 25.88 8.81329 26.0933L11.12 27.4133C11.4 27.5867 11.7333 27.6267 12.04 27.5467C12.36 27.4667 12.6266 27.2533 12.8 26.9733L12.9466 26.72C13.7066 25.4133 14.8133 24.6533 16 24.6533Z" fill="#118259"/>
</svg>
