<svg width="31" height="30" viewBox="0 0 31 30" fill="none" xmlns="http://www.w3.org/2000/svg">
<path d="M14.5489 2.16311C14.8483 1.24181 16.1517 1.2418 16.4511 2.16312L18.7025 9.0922C19.1041 10.3283 20.2559 11.1652 21.5556 11.1652H28.8413C29.81 11.1652 30.2128 12.4048 29.4291 12.9742L23.5348 17.2566C22.4834 18.0205 22.0434 19.3746 22.445 20.6107L24.6964 27.5398C24.9958 28.4611 23.9413 29.2272 23.1576 28.6578L17.2634 24.3754C16.2119 23.6115 14.7881 23.6115 13.7366 24.3754L7.84241 28.6578C7.0587 29.2272 6.00422 28.4611 6.30357 27.5398L8.55497 20.6107C8.95659 19.3746 8.51661 18.0205 7.46515 17.2566L1.57092 12.9742C0.787212 12.4048 1.18998 11.1652 2.15871 11.1652H9.44438C10.7441 11.1652 11.8959 10.3283 12.2975 9.0922L14.5489 2.16311Z" stroke="#118259" stroke-width="2"/>
</svg>
